<svg width="231" height="57" viewBox="0 0 231 57" fill="none" xmlns="http://www.w3.org/2000/svg">
<g id="Isolation_Mode">
<path id="Vector" d="M22.83 39.812H22.82H11.037C10.671 39.812 10.378 39.719 10.245 39.555C10.161 39.448 10.115 39.276 10.115 39.056C10.115 38.909 10.136 38.745 10.176 38.565C10.176 38.565 14.502 18.988 14.536 18.829C14.605 18.64 14.765 18.531 15.018 18.503H29.369C28.891 20.617 25.81 34.594 24.969 38.336C24.618 39.582 23.548 39.785 23.067 39.812H22.83ZM35.624 33.566L40.912 10.112C41.528 7.396 43.139 0 43.139 0H33.556C33.556 0 31.719 8.16 31.297 9.988H15.282C12.601 9.988 10.357 10.679 8.632 12.037C6.897 13.403 5.731 15.384 5.157 17.925L0.297 39.811C0.099 40.684 0 41.492 0 42.24C0 43.778 0.411 45.065 1.237 46.08C2.457 47.564 4.499 48.324 7.296 48.324H18.804C21.483 48.324 22.737 47.083 23.045 45.722C23.385 44.211 23.761 42.547 23.823 42.288C24.204 40.647 25.334 39.843 25.461 39.757L25.528 39.713C25.528 39.713 29.871 37.471 34.034 35.327C35.357 34.756 35.624 33.566 35.624 33.566Z" fill="#F6921E"/>
<path id="Vector_2" d="M70.575 12.9V12.895C69.083 10.943 66.681 9.99902 63.429 9.99902H43.354L41.502 18.504H60.828C61.267 18.504 61.646 18.837 61.625 19.207C61.615 19.495 61.36 20.576 61.36 20.576L59.977 26.787C59.977 26.787 59.734 28.171 58.352 28.648C58.243 28.699 38.318 34.463 38.318 34.463C38.318 34.463 36.191 35.394 35.667 37.423C35.365 38.597 31.366 56.677 31.366 56.677L59.057 56.693H61.321C64.005 56.693 65.255 55.451 65.569 54.088C65.87 52.733 66.199 51.266 66.309 50.791L66.853 48.324H43.311L44.876 41.295C44.909 41.153 45.058 40.69 45.387 40.519C46.958 39.76 65.033 35 66.247 34.393C68.65 33.182 69.282 30.856 69.299 30.764L71.571 20.532C71.824 19.464 72.016 18.468 72.016 17.541C72.017 15.716 71.535 14.169 70.575 12.9Z" fill="#808079"/>
<path id="Vector_3" d="M183.348 42.6958C183.305 42.9588 183.268 43.2108 183.237 43.4468C183.279 43.1838 183.322 42.9358 183.348 42.6958Z" fill="#A6A8AB"/>
<path id="Vector_4" d="M125.453 30.477L125.461 30.436C125.457 30.461 125.453 30.477 125.453 30.477Z" fill="#A6A8AB"/>
<path id="Vector_5" d="M99 42.4258H98.949L96.667 29.1328H92.674V29.1368C91.407 29.1368 91.053 30.1078 90.979 30.3968L87.166 48.3248H90.915L93.9 34.2928H93.953L96.208 48.3238H101.495L105.573 29.1328H101.824L99 42.4258Z" fill="#A6A8AB"/>
<path id="Vector_6" d="M208.963 42.4258H208.908L206.631 29.1328H202.641C201.336 29.1328 200.998 30.1538 200.936 30.4158L197.133 48.3238H200.875L203.863 34.2928H203.916L206.162 48.3238H211.457L215.533 29.1328H211.787L208.963 42.4258Z" fill="#A6A8AB"/>
<path id="Vector_7" d="M127.166 29.1328C125.834 29.1328 125.514 30.2108 125.461 30.4368L125.453 30.4768L121.65 48.3258H125.671L129.747 29.1338H127.166V29.1328Z" fill="#A6A8AB"/>
<path id="Vector_8" d="M143.98 29.1328L141.156 42.4258H141.103L138.83 29.1328H134.828C133.531 29.1328 133.197 30.1568 133.131 30.4168L129.322 48.3248H133.07L136.054 34.2918H136.109L138.361 48.3248H143.654L147.728 29.1328H143.98Z" fill="#A6A8AB"/>
<path id="Vector_9" d="M154.756 32.0838H161.217L161.844 29.1328H152.797C151.498 29.1328 151.166 30.1538 151.098 30.4158L147.291 48.3238H157.975L158.602 45.3758H151.93L153.121 39.7678H159.076L159.703 36.8188H153.748L154.756 32.0838Z" fill="#A6A8AB"/>
<path id="Vector_10" d="M81.153 32.0838H87.614L88.238 29.1328H79.192C77.898 29.1328 77.557 30.1558 77.495 30.4158L73.685 48.3238H84.373L84.997 45.3758H78.332L79.518 39.7678H85.475L86.102 36.8188H80.147L81.153 32.0838Z" fill="#A6A8AB"/>
<path id="Vector_11" d="M168.314 32.0838H174.775L175.396 29.1328H166.355C165.058 29.1328 164.72 30.1538 164.654 30.4158L160.849 48.3238H171.535L172.158 45.3758H165.49L166.679 39.7678H172.634L173.259 36.8188H167.306L168.314 32.0838Z" fill="#A6A8AB"/>
<path id="Vector_12" d="M185.084 34.6068C184.82 35.8358 184.025 37.4268 182.432 37.4268H180.659L181.79 32.0828H183.567C184.844 32.0838 185.469 32.7748 185.084 34.6068ZM185.816 29.1328H179.83C178.533 29.1328 178.193 30.1568 178.131 30.4168L174.32 48.3248H178.334L180.022 40.3828H181.069C183.257 40.3828 183.514 41.2948 183.348 42.6938V42.6968C183.323 42.9358 183.278 43.1838 183.235 43.4478C182.633 47.5868 183.198 47.9068 183.721 48.3258H187.711C187.156 47.8828 186.35 47.8958 187.346 42.6938C188.018 39.2228 185.526 39.0218 184.668 38.9168L184.676 38.8648C187.371 38.4378 188.721 36.6078 189.24 34.1588C189.939 30.8888 188.551 29.1328 185.816 29.1328Z" fill="#A6A8AB"/>
<path id="Vector_13" d="M194.953 29.1328C193.66 29.1328 193.318 30.1568 193.256 30.4158L189.445 48.3248H193.457L197.541 29.1328H194.953Z" fill="#A6A8AB"/>
<path id="Vector_14" d="M112.443 45.7358C112.384 45.7358 112.324 45.7378 112.261 45.7358C112.313 45.7378 112.364 45.7418 112.413 45.7418C112.428 45.7418 112.435 45.7358 112.443 45.7358Z" fill="#A6A8AB"/>
<path id="Vector_15" d="M115.902 28.8159C109.336 28.8159 108.049 33.7339 107.024 38.5699C105.474 45.8549 105.655 48.6439 112.403 48.6439C112.779 48.6439 113.218 48.6209 113.686 48.5829C117.758 48.1179 118.549 45.2199 118.639 44.8329L120.028 38.2809H113.836L113.209 41.2309H115.183H115.236H115.569L114.993 43.9049C114.993 43.9049 114.62 45.6749 112.443 45.7349C112.433 45.7349 112.426 45.7369 112.414 45.7369C112.364 45.7369 112.314 45.7369 112.26 45.7349H112.257C110.111 45.6939 109.796 44.6509 111.049 38.7819C111.832 35.0609 112.556 31.6869 115.049 31.6869C117.177 31.6869 117.136 33.2539 116.732 35.0389H120.72C121.811 31.0229 119.836 28.8159 115.902 28.8159Z" fill="#A6A8AB"/>
<path id="Vector_16" d="M222.402 45.7358C222.345 45.7358 222.285 45.7378 222.222 45.7358C222.273 45.7378 222.32 45.7418 222.376 45.7418C222.383 45.7418 222.389 45.7358 222.402 45.7358Z" fill="#A6A8AB"/>
<path id="Vector_17" d="M230.678 35.0389C231.772 31.0229 229.797 28.8149 225.862 28.8149C219.296 28.8149 218.012 33.7339 216.983 38.5719C215.434 45.8549 215.61 48.6439 222.366 48.6439C222.731 48.6439 223.175 48.6209 223.643 48.5829C227.713 48.1209 228.506 45.2189 228.598 44.8319L229.985 38.2809H223.796L223.167 41.2299H225.142H225.199H225.527L224.953 43.9039C224.953 43.9039 224.582 45.6749 222.404 45.7349C222.398 45.7349 222.384 45.7389 222.377 45.7389C222.324 45.7389 222.275 45.7379 222.225 45.7349H222.217C220.071 45.6929 219.758 44.6509 221.008 38.7829C221.797 35.0599 222.514 31.6859 225.01 31.6859C227.141 31.6859 227.1 33.2559 226.694 35.0379H230.678V35.0389Z" fill="#A6A8AB"/>
<path id="Vector_18" d="M164.65 50.7441H163.994L163.613 52.9101H163.595C163.398 52.4141 162.822 52.2521 162.419 52.2521C161.194 52.2521 160.415 53.2541 160.204 54.4441C159.995 55.6321 160.425 56.6601 161.655 56.6601C162.214 56.6601 162.753 56.4571 163.051 55.9921H163.067L162.967 56.5621H163.625L164.65 50.7441ZM160.893 54.4941C161.038 53.6701 161.485 52.8611 162.381 52.8611C163.287 52.8611 163.506 53.6361 163.363 54.4591C163.222 55.2441 162.75 56.0501 161.857 56.0501C161.008 56.0501 160.754 55.2831 160.893 54.4941ZM158.525 56.5631H159.181L160.206 50.7451H159.55L158.525 56.5631ZM156.039 56.5631H156.697L157.027 54.6871C157.216 53.6141 157.713 52.9851 158.775 52.9851L158.904 52.2531C158.195 52.2291 157.699 52.5541 157.259 53.2371H157.243L157.399 52.3521H156.782L156.039 56.5631ZM151.93 54.4591C151.713 55.6911 152.213 56.6601 153.483 56.6601C154.754 56.6601 155.596 55.6911 155.813 54.4591C156.034 53.2211 155.532 52.2521 154.26 52.2521C152.992 52.2521 152.146 53.2211 151.93 54.4591ZM152.623 54.4591C152.805 53.4411 153.465 52.8611 154.152 52.8611C154.841 52.8611 155.297 53.4411 155.117 54.4591C154.937 55.4801 154.281 56.0501 153.592 56.0501C152.9 56.0501 152.445 55.4791 152.623 54.4591ZM152.045 52.3521H151.363L149.857 55.7971H149.841L149.612 52.3521H148.893L147.481 55.7971H147.465L147.166 52.3521H146.437L146.98 56.5631H147.693L149.088 53.2141H149.104L149.327 56.5631H150.022L152.045 52.3521ZM137.617 56.5631H138.273L138.736 53.9391C138.793 53.6141 139.22 52.8621 139.996 52.8621C140.584 52.8621 140.678 53.2551 140.58 53.8001L140.094 56.5631H140.75L141.213 53.9391C141.33 53.2881 141.807 52.8621 142.449 52.8621C143.091 52.8621 143.15 53.2781 143.058 53.8001L142.57 56.5631H143.228L143.773 53.4751C143.925 52.6021 143.453 52.2521 142.656 52.2521C142.138 52.2521 141.627 52.5141 141.275 52.9681C141.207 52.4471 140.798 52.2521 140.302 52.2521C139.738 52.2521 139.271 52.4871 138.884 52.9681H138.866L138.975 52.3521H138.358L137.617 56.5631ZM136.35 55.0961C136.282 55.4891 135.827 56.0501 134.959 56.0501C134.557 56.0501 134.213 55.8871 134.293 55.4321C134.477 54.3941 135.895 54.7861 136.475 54.3871L136.35 55.0961ZM137.256 56.0101C137.184 56.0351 137.111 56.0501 137.049 56.0501C136.838 56.0501 136.865 55.9041 136.922 55.5761L137.305 53.4081C137.479 52.4241 136.729 52.2521 136.008 52.2521C135.11 52.2521 134.289 52.6191 134.065 53.6601H134.721C134.862 53.0431 135.303 52.8611 135.862 52.8611C136.272 52.8611 136.737 52.9511 136.63 53.5641C136.536 54.0911 135.919 54.0281 135.173 54.1811C134.47 54.3121 133.759 54.5251 133.591 55.4791C133.441 56.3271 133.978 56.6601 134.704 56.6601C135.263 56.6601 135.784 56.4671 136.229 56.0101C136.147 56.4671 136.331 56.6601 136.672 56.6601C136.863 56.6601 137.033 56.6201 137.162 56.5461L137.256 56.0101ZM132.611 55.2271C132.398 55.7821 131.98 56.0501 131.429 56.0501C130.554 56.0501 130.273 55.3991 130.427 54.6621H133.423C133.642 53.6451 133.452 52.2521 132.036 52.2521C130.944 52.2521 129.993 53.1721 129.768 54.4441C129.58 55.7241 130.02 56.6601 131.297 56.6601C132.203 56.6601 132.916 56.1641 133.26 55.2261L132.611 55.2271ZM130.535 54.0541C130.687 53.4011 131.209 52.8621 131.89 52.8621C132.548 52.8621 132.911 53.3921 132.833 54.0541H130.535ZM127.166 56.5631H127.824L128.154 54.6871C128.345 53.6141 128.842 52.9851 129.902 52.9851L130.031 52.2531C129.324 52.2291 128.824 52.5541 128.386 53.2371H128.37L128.528 52.3521H127.909L127.166 56.5631ZM122.004 56.5631H123.9C125.744 56.5631 126.748 55.4651 127.091 53.5161C127.421 51.6491 126.628 50.7451 124.925 50.7451H123.029L122.004 56.5631ZM123.65 51.3961H124.886C126.241 51.3961 126.581 52.2351 126.337 53.6231C125.96 55.7671 124.579 55.9121 124.075 55.9121H122.852L123.65 51.3961ZM115.765 54.4591C115.548 55.6911 116.049 56.6601 117.321 56.6601C118.591 56.6601 119.432 55.6911 119.649 54.4591C119.868 53.2211 119.366 52.2521 118.096 52.2521C116.824 52.2521 115.983 53.2211 115.765 54.4591ZM116.459 54.4591C116.641 53.4411 117.299 52.8611 117.988 52.8611C118.677 52.8611 119.133 53.4411 118.953 54.4591C118.773 55.4801 118.117 56.0501 117.428 56.0501C116.736 56.0501 116.279 55.4791 116.459 54.4591ZM115.205 51.0881H114.548L114.324 52.3521H113.643L113.536 52.9601H114.217L113.744 55.6431C113.609 56.4161 113.853 56.5631 114.534 56.5631H115.037L115.144 55.9541H114.843C114.432 55.9541 114.356 55.9051 114.413 55.5771L114.874 52.9611H115.671L115.778 52.3531H114.981L115.205 51.0881ZM107.18 56.5631H107.837L108.257 54.1821C108.39 53.4251 108.877 52.8621 109.674 52.8621C110.178 52.8621 110.43 53.1881 110.338 53.7111L109.835 56.5641H110.493L110.981 53.7931C111.14 52.8881 110.927 52.2541 109.875 52.2541C109.402 52.2541 108.787 52.4561 108.487 52.9701H108.472L108.863 50.7461H108.206L107.18 56.5631ZM107.08 53.7031C107.156 52.6991 106.524 52.2521 105.61 52.2521C104.339 52.2521 103.546 53.2441 103.324 54.5091C103.1 55.7721 103.594 56.6601 104.816 56.6601C105.83 56.6601 106.541 56.0581 106.87 55.0231H106.198C105.998 55.6681 105.56 56.0491 104.917 56.0491C104.08 56.0491 103.882 55.2921 104.02 54.5081C104.169 53.6591 104.603 52.8611 105.558 52.8611C106.107 52.8631 106.393 53.1721 106.4 53.7031H107.08ZM102.175 55.2271C101.962 55.7821 101.543 56.0501 100.993 56.0501C100.118 56.0501 99.837 55.3991 99.99 54.6621H102.987C103.205 53.6451 103.018 52.2521 101.6 52.2521C100.508 52.2521 99.558 53.1721 99.333 54.4441C99.146 55.7241 99.584 56.6601 100.862 56.6601C101.769 56.6601 102.483 56.1641 102.825 55.2261L102.175 55.2271ZM100.097 54.0541C100.251 53.4011 100.772 52.8621 101.453 52.8621C102.112 52.8621 102.474 53.3921 102.398 54.0541H100.097ZM98.771 51.0881H98.114L97.89 52.3521H97.21L97.103 52.9601H97.784L97.31 55.6431C97.175 56.4161 97.419 56.5631 98.099 56.5631H98.603L98.71 55.9541H98.409C97.998 55.9541 97.922 55.9051 97.979 55.5771L98.44 52.9611H99.237L99.344 52.3531H98.547L98.771 51.0881ZM88.447 56.5631H89.104L89.567 53.9391C89.626 53.6141 90.052 52.8621 90.827 52.8621C91.414 52.8621 91.508 53.2551 91.413 53.8001L90.926 56.5631H91.583L92.046 53.9391C92.16 53.2881 92.637 52.8621 93.28 52.8621C93.923 52.8621 93.982 53.2781 93.89 53.8001L93.403 56.5631H94.06L94.604 53.4751C94.759 52.6021 94.288 52.2521 93.491 52.2521C92.97 52.2521 92.461 52.5141 92.109 52.9681C92.038 52.4471 91.633 52.2521 91.137 52.2521C90.573 52.2521 90.105 52.4871 89.718 52.9681H89.703L89.812 52.3521H89.193L88.447 56.5631ZM87.182 55.0961C87.113 55.4891 86.657 56.0501 85.79 56.0501C85.386 56.0501 85.043 55.8871 85.125 55.4321C85.307 54.3941 86.724 54.7861 87.307 54.3871L87.182 55.0961ZM88.088 56.0101C88.013 56.0351 87.941 56.0501 87.878 56.0501C87.67 56.0501 87.696 55.9041 87.753 55.5761L88.134 53.4081C88.309 52.4241 87.557 52.2521 86.838 52.2521C85.939 52.2521 85.118 52.6191 84.896 53.6601H85.553C85.693 53.0431 86.135 52.8611 86.691 52.8611C87.102 52.8611 87.566 52.9511 87.459 53.5641C87.365 54.0911 86.75 54.0281 86.001 54.1811C85.298 54.3121 84.587 54.5251 84.418 55.4791C84.269 56.3271 84.807 56.6601 85.534 56.6601C86.091 56.6601 86.614 56.4671 87.058 56.0101C86.977 56.4671 87.159 56.6601 87.499 56.6601C87.693 56.6601 87.863 56.6201 87.991 56.5461L88.088 56.0101ZM83.443 55.2271C83.228 55.7821 82.809 56.0501 82.26 56.0501C81.384 56.0501 81.106 55.3991 81.258 54.6621H84.253C84.471 53.6451 84.284 52.2521 82.867 52.2521C81.776 52.2521 80.825 53.1721 80.601 54.4441C80.413 55.7241 80.851 56.6601 82.129 56.6601C83.034 56.6601 83.748 56.1641 84.091 55.2261L83.443 55.2271ZM81.366 54.0541C81.518 53.4011 82.04 52.8621 82.721 52.8621C83.38 52.8621 83.744 53.3921 83.666 54.0541H81.366ZM77.999 56.5631H78.656L78.987 54.6871C79.175 53.6141 79.673 52.9851 80.734 52.9851L80.864 52.2531C80.155 52.2291 79.656 52.5541 79.219 53.2371H79.203L79.359 52.3521H78.74L77.999 56.5631ZM72.836 56.5631H74.732C76.574 56.5631 77.58 55.4651 77.922 53.5161C78.252 51.6491 77.46 50.7451 75.755 50.7451H73.86L72.836 56.5631ZM74.48 51.3961H75.719C77.075 51.3961 77.414 52.2351 77.171 53.6231C76.793 55.7671 75.411 55.9121 74.909 55.9121H73.685L74.48 51.3961Z" fill="black"/>
</g>
</svg>
