<svg width="122" height="24" viewBox="0 0 122 24" fill="none" xmlns="http://www.w3.org/2000/svg">
<path fill-rule="evenodd" clip-rule="evenodd" d="M15.3334 7.01118C14.3467 6.3519 13.1867 6 12 6V0C14.3734 0 16.6934 0.703788 18.6668 2.02237C20.6402 3.34094 22.1783 5.21509 23.0866 7.40778C23.9948 9.60048 24.2324 12.0133 23.7694 14.3411C23.3064 16.6688 22.1635 18.8071 20.4853 20.4853C18.8071 22.1635 16.6688 23.3064 14.3411 23.7694C12.0133 24.2324 9.60048 23.9948 7.40778 23.0866C5.21508 22.1783 3.34094 20.6402 2.02237 18.6668C0.703788 16.6934 0 14.3734 0 12H6C6 13.1867 6.3519 14.3467 7.01118 15.3334C7.67046 16.3201 8.60754 17.0891 9.70392 17.5433C10.8002 17.9974 12.0067 18.1162 13.1705 17.8847C14.3344 17.6532 15.4035 17.0818 16.2427 16.2427C17.0818 15.4035 17.6532 14.3344 17.8847 13.1705C18.1162 12.0067 17.9974 10.8002 17.5433 9.70392C17.0891 8.60754 16.3201 7.67046 15.3334 7.01118Z" fill="url(#paint0_linear_2475_7285)"/>
<path fill-rule="evenodd" clip-rule="evenodd" d="M6 3.17096e-06C6 0.787934 5.84481 1.56815 5.54328 2.29611C5.24175 3.02406 4.79979 3.68549 4.24264 4.24264C3.68549 4.7998 3.02406 5.24175 2.2961 5.54328C1.56814 5.84481 0.787929 6 2.62266e-07 6L0 12C1.57586 12 3.13629 11.6896 4.5922 11.0866C6.04812 10.4835 7.371 9.59958 8.48526 8.48526C9.59958 7.371 10.4835 6.04812 11.0866 4.5922C11.6896 3.13629 12 1.57586 12 0L6 3.17096e-06Z" fill="url(#paint1_linear_2475_7285)"/>
<path d="M75.3721 8.67188H72.4609V17.9193H75.3721V8.67188Z" fill="#C0C0C0"/>
<path d="M72.7837 6.94016C73.0879 7.2446 73.4683 7.39682 73.9249 7.39682C74.3815 7.39682 74.7559 7.2446 75.0475 6.94016C75.3397 6.62306 75.4855 6.24248 75.4855 5.79851C75.4855 5.34186 75.3397 4.96129 75.0475 4.65686C74.7559 4.35241 74.3815 4.2002 73.9249 4.2002C73.4683 4.2002 73.0879 4.35241 72.7837 4.65686C72.4915 4.96129 72.3457 5.34186 72.3457 5.79851C72.3457 6.24248 72.4915 6.62306 72.7837 6.94016Z" fill="#C0C0C0"/>
<path d="M30.6934 17.9188V4.48535H33.6807V15.293H39.6364V17.9188H30.6934Z" fill="#C0C0C0"/>
<path fill-rule="evenodd" clip-rule="evenodd" d="M45.0164 18.1279C44.065 18.1279 43.2025 17.9186 42.4286 17.5C41.6675 17.0687 41.065 16.4852 40.621 15.7495C40.1771 15.0137 39.9551 14.1892 39.9551 13.2759C39.9551 12.3626 40.1771 11.5444 40.621 10.8214C41.065 10.0983 41.6675 9.52745 42.4286 9.10889C43.1897 8.67755 44.0524 8.46191 45.0164 8.46191C45.9805 8.46191 46.843 8.67125 47.6041 9.08981C48.3652 9.50843 48.9678 10.0856 49.4117 10.8214C49.8557 11.5444 50.0777 12.3626 50.0777 13.2759C50.0777 14.1892 49.8557 15.0137 49.4117 15.7495C48.9678 16.4852 48.3652 17.0687 47.6041 17.5C46.843 17.9186 45.9805 18.1279 45.0164 18.1279ZM45.0164 15.4831C45.435 15.4831 45.8029 15.3943 46.12 15.2167C46.4371 15.0265 46.6781 14.7664 46.843 14.4366C47.0206 14.0941 47.1094 13.7072 47.1094 13.2759C47.1094 12.8446 47.0206 12.4704 46.843 12.1533C46.6654 11.8235 46.4181 11.5698 46.1009 11.3922C45.7965 11.2019 45.435 11.1068 45.0164 11.1068C44.6105 11.1068 44.249 11.2019 43.9318 11.3922C43.6147 11.5698 43.3673 11.8235 43.1897 12.1533C43.0121 12.4831 42.9234 12.8636 42.9234 13.2949C42.9234 13.7135 43.0121 14.0941 43.1897 14.4366C43.3673 14.7664 43.6147 15.0265 43.9318 15.2167C44.249 15.3943 44.6105 15.4831 45.0164 15.4831Z" fill="#C0C0C0"/>
<path fill-rule="evenodd" clip-rule="evenodd" d="M52.3828 21.5344C53.1565 21.8895 54.0508 22.0671 55.0657 22.0671C56.0551 22.0671 56.9367 21.8705 57.7105 21.4773C58.4843 21.084 59.0931 20.5386 59.5371 19.8409C59.981 19.1433 60.2033 18.3187 60.2033 17.3673V8.67177H57.3489V9.29307C57.1366 9.11439 56.8956 8.96439 56.6259 8.84301C56.1312 8.60199 55.5667 8.48145 54.9325 8.48145C54.0826 8.48145 53.3278 8.68443 52.6682 9.09033C52.0085 9.48357 51.4885 10.029 51.1079 10.7267C50.7273 11.4117 50.5371 12.1855 50.5371 13.0481C50.5371 13.898 50.7273 14.6718 51.1079 15.3694C51.4885 16.0671 52.0085 16.6189 52.6682 17.0248C53.3278 17.4307 54.0826 17.6337 54.9325 17.6337C55.554 17.6337 56.1185 17.5132 56.6259 17.2722C56.8717 17.1555 57.0937 17.0179 57.2919 16.8594V17.4435C57.2919 18.0904 57.0826 18.5914 56.664 18.9466C56.2581 19.3018 55.6936 19.4794 54.9705 19.4794C54.387 19.4794 53.8859 19.3779 53.4673 19.1749C53.0614 18.972 52.6935 18.6739 52.3637 18.2806L50.5751 20.0692C51.0191 20.7035 51.6217 21.1919 52.3828 21.5344ZM56.5308 14.7796C56.239 14.9572 55.8902 15.046 55.4842 15.046C55.0783 15.046 54.7231 14.9572 54.4187 14.7796C54.1269 14.602 53.8986 14.361 53.7337 14.0565C53.5688 13.7394 53.4863 13.4032 53.4863 13.0481C53.4863 12.6675 53.5688 12.325 53.7337 12.0206C53.8986 11.7162 54.1333 11.4751 54.4377 11.2975C54.7421 11.1199 55.091 11.0311 55.4842 11.0311C55.8902 11.0311 56.239 11.1199 56.5308 11.2975C56.8352 11.4751 57.0635 11.7162 57.2158 12.0206C57.3807 12.325 57.4631 12.6675 57.4631 13.0481C57.4631 13.4286 57.3807 13.7711 57.2158 14.0755C57.0635 14.3673 56.8352 14.602 56.5308 14.7796Z" fill="#C0C0C0"/>
<path fill-rule="evenodd" clip-rule="evenodd" d="M66.3311 18.1279C65.3795 18.1279 64.5167 17.9186 63.7433 17.5C62.9819 17.0687 62.3795 16.4852 61.9355 15.7495C61.4915 15.0137 61.2695 14.1892 61.2695 13.2759C61.2695 12.3626 61.4915 11.5444 61.9355 10.8214C62.3795 10.0983 62.9819 9.52745 63.7433 9.10889C64.5041 8.67755 65.3669 8.46191 66.3311 8.46191C67.2947 8.46191 68.1575 8.67125 68.9183 9.08981C69.6797 9.50843 70.2821 10.0856 70.7261 10.8214C71.1701 11.5444 71.3921 12.3626 71.3921 13.2759C71.3921 14.1892 71.1701 15.0137 70.7261 15.7495C70.2821 16.4852 69.6797 17.0687 68.9183 17.5C68.1575 17.9186 67.2947 18.1279 66.3311 18.1279ZM66.3311 15.4831C66.7493 15.4831 67.1171 15.3943 67.4345 15.2167C67.7513 15.0265 67.9925 14.7664 68.1575 14.4366C68.3351 14.0941 68.4239 13.7072 68.4239 13.2759C68.4239 12.8446 68.3351 12.4704 68.1575 12.1533C67.9799 11.8235 67.7327 11.5698 67.4153 11.3922C67.1111 11.2019 66.7493 11.1068 66.3311 11.1068C65.9249 11.1068 65.5631 11.2019 65.2463 11.3922C64.9289 11.5698 64.6817 11.8235 64.5041 12.1533C64.3265 12.4831 64.2377 12.8636 64.2377 13.2949C64.2377 13.7135 64.3265 14.0941 64.5041 14.4366C64.6817 14.7664 64.9289 15.0265 65.2463 15.2167C65.5631 15.3943 65.9249 15.4831 66.3311 15.4831Z" fill="#C0C0C0"/>
<path fill-rule="evenodd" clip-rule="evenodd" d="M82.3684 18.1094C81.7474 18.1094 81.1762 17.9889 80.656 17.7479C80.3824 17.6211 80.1352 17.4696 79.9144 17.2936V21.8198H77.041V8.67177H79.9522V9.30999C80.1634 9.13725 80.398 8.98791 80.656 8.86203C81.1762 8.60829 81.7474 8.48145 82.3684 8.48145C83.2438 8.48145 84.0178 8.69079 84.6898 9.10941C85.375 9.52797 85.9078 10.0988 86.2882 10.8219C86.6818 11.5449 86.878 12.3694 86.878 13.2954C86.878 14.2215 86.6818 15.046 86.2882 15.769C85.9078 16.4921 85.375 17.0629 84.6898 17.4815C84.0178 17.9001 83.2438 18.1094 82.3684 18.1094ZM81.8362 15.4836C82.2544 15.4836 82.6162 15.3885 82.9204 15.1982C83.2378 15.0079 83.485 14.7478 83.6626 14.4181C83.8402 14.0883 83.929 13.714 83.929 13.2954C83.929 12.8641 83.8402 12.4836 83.6626 12.1538C83.485 11.824 83.2378 11.5703 82.9204 11.3927C82.6162 11.2024 82.261 11.1073 81.8548 11.1073C81.4492 11.1073 81.0874 11.2024 80.7706 11.3927C80.4658 11.5703 80.2252 11.824 80.0476 12.1538C79.87 12.4836 79.7812 12.8641 79.7812 13.2954C79.7812 13.714 79.8634 14.0883 80.0284 14.4181C80.206 14.7478 80.4532 15.0079 80.7706 15.1982C81.0874 15.3885 81.4426 15.4836 81.8362 15.4836Z" fill="#C0C0C0"/>
<path d="M89.7281 17.9381C90.2609 18.0776 90.7997 18.1474 91.3451 18.1474C92.4995 18.1474 93.4127 17.881 94.0853 17.3482C94.7699 16.8155 95.1125 16.0988 95.1125 15.1981C95.1125 14.6146 95.0051 14.1452 94.7891 13.7901C94.5737 13.4222 94.2947 13.1305 93.9521 12.9148C93.6095 12.6992 93.2477 12.5279 92.8673 12.401C92.4869 12.2742 92.1251 12.1664 91.7831 12.0776C91.4405 11.9888 91.1615 11.8873 90.9455 11.7731C90.7301 11.659 90.6221 11.5067 90.6221 11.3165C90.6221 11.1389 90.7049 11.0057 90.8693 10.9169C91.0343 10.8154 91.2815 10.7647 91.6115 10.7647C91.9541 10.7647 92.3027 10.8344 92.6579 10.974C93.0257 11.1135 93.3557 11.3546 93.6473 11.6971L95.3027 10.0226C94.8845 9.48983 94.3391 9.09023 93.6665 8.82389C93.0071 8.54483 92.2841 8.40527 91.4975 8.40527C90.7493 8.40527 90.0959 8.53211 89.5379 8.78579C88.9793 9.03953 88.5479 9.38837 88.2437 9.83231C87.9395 10.2636 87.7871 10.7774 87.7871 11.3736C87.7871 11.9317 87.8951 12.3947 88.1105 12.7626C88.3259 13.1177 88.6055 13.3969 88.9475 13.5998C89.2901 13.8028 89.6519 13.9613 90.0323 14.0755C90.4127 14.1896 90.7745 14.2975 91.1171 14.399C91.4591 14.4878 91.7387 14.5956 91.9541 14.7224C92.1827 14.8366 92.2967 15.0079 92.2967 15.2362C92.2967 15.4138 92.2013 15.5533 92.0111 15.6548C91.8335 15.7562 91.5737 15.807 91.2311 15.807C90.7361 15.807 90.2795 15.7182 89.8613 15.5406C89.4425 15.3503 89.0807 15.0903 88.7765 14.7605L87.1211 16.4349C87.4385 16.7774 87.8189 17.0819 88.2629 17.3482C88.7195 17.6019 89.2079 17.7985 89.7281 17.9381Z" fill="#C0C0C0"/>
<path d="M100.42 18.1285C99.5704 18.1285 98.8156 17.9573 98.1562 17.6148C97.5088 17.2596 97.0018 16.7776 96.634 16.1687C96.2656 15.5472 96.082 14.8368 96.082 14.0376V8.67188H98.9932V13.9996C98.9932 14.3167 99.0436 14.5894 99.1456 14.8177C99.2596 15.0461 99.4246 15.2237 99.64 15.3505C99.856 15.4774 100.116 15.5408 100.42 15.5408C100.851 15.5408 101.194 15.4076 101.448 15.1412C101.702 14.8621 101.828 14.4816 101.828 13.9996V8.67188H104.739V14.0186C104.739 14.8305 104.556 15.5472 104.187 16.1687C103.82 16.7776 103.313 17.2596 102.665 17.6148C102.018 17.9573 101.27 18.1285 100.42 18.1285Z" fill="#C0C0C0"/>
<path d="M109.099 8.67177H106.188V17.9191H109.099V12.5153C109.099 12.1982 109.162 11.9318 109.289 11.7162C109.429 11.5005 109.613 11.3356 109.841 11.2215C110.069 11.0946 110.329 11.0311 110.621 11.0311C111.04 11.0311 111.388 11.1643 111.667 11.4307C111.959 11.6844 112.105 12.046 112.105 12.5153V17.9191H115.016V12.5153C115.016 12.1982 115.08 11.9318 115.207 11.7162C115.346 11.5005 115.53 11.3356 115.759 11.2215C115.987 11.0946 116.247 11.0311 116.539 11.0311C116.957 11.0311 117.306 11.1643 117.585 11.4307C117.877 11.6844 118.022 12.046 118.022 12.5153V17.9191H120.934V12.1918C120.934 11.4181 120.769 10.7584 120.439 10.213C120.122 9.65481 119.685 9.22989 119.127 8.93817C118.581 8.63367 117.953 8.48145 117.243 8.48145C116.52 8.48145 115.866 8.64003 115.283 8.95719C114.904 9.15921 114.572 9.41997 114.289 9.73941C114.024 9.40527 113.702 9.13185 113.323 8.91909C112.816 8.62737 112.238 8.48145 111.592 8.48145C110.906 8.48145 110.292 8.62737 109.746 8.91909C109.509 9.04047 109.293 9.18585 109.099 9.35523V8.67177Z" fill="#C0C0C0"/>
<defs>
<linearGradient id="paint0_linear_2475_7285" x1="0" y1="0" x2="24" y2="24" gradientUnits="userSpaceOnUse">
<stop stop-color="white"/>
<stop offset="1" stop-color="#8A8A8A"/>
</linearGradient>
<linearGradient id="paint1_linear_2475_7285" x1="0" y1="0" x2="24" y2="24" gradientUnits="userSpaceOnUse">
<stop stop-color="white"/>
<stop offset="1" stop-color="#8A8A8A"/>
</linearGradient>
</defs>
</svg>
